<?xml version="1.0" encoding="UTF-8" standalone="no" ?>
<!DOCTYPE svg PUBLIC "-//W3C//DTD SVG 1.1//EN" "http://www.w3.org/Graphics/SVG/1.1/DTD/svg11.dtd">
<svg xmlns="http://www.w3.org/2000/svg" xmlns:xlink="http://www.w3.org/1999/xlink" version="1.1" width="1080" height="1080" viewBox="0 0 1080 1080" xml:space="preserve">
<desc>Created with Fabric.js 5.2.4</desc>
<defs>
</defs>
<g transform="matrix(1 0 0 1 540 540)" id="0c2284b7-64bf-468c-865e-68a9fae2c9aa"  >
<rect style="stroke: none; stroke-width: 1; stroke-dasharray: none; stroke-linecap: butt; stroke-dashoffset: 0; stroke-linejoin: miter; stroke-miterlimit: 4; fill: rgb(255,255,255); fill-rule: nonzero; opacity: 1; visibility: hidden;" vector-effect="non-scaling-stroke"  x="-540" y="-540" rx="0" ry="0" width="1080" height="1080" />
</g>
<g transform="matrix(1 0 0 1 540 540)" id="aff0c2b5-355c-4bc8-9460-37c250fed2ae"  >
</g>
<g transform="matrix(1.45 0 0 1.45 540 540)"  >
<g style=""   >
		<g transform="matrix(1 0 0 1 -286.45 290.34)" id="fa3b9e12-7275-481e-bee9-64fd9595a50d"  >
<path style="stroke: none; stroke-width: 1; stroke-dasharray: none; stroke-linecap: butt; stroke-dashoffset: 0; stroke-linejoin: miter; stroke-miterlimit: 4; fill: rgb(242,242,242); fill-rule: nonzero; opacity: 1;" vector-effect="non-scaling-stroke"  transform=" translate(-313.55, -740.34)" d="M 299.205 705.80851 L 292.645 679.93651 C 281.01386717529897 675.0071331917097 269.11397002235987 670.7376866021468 257.00199999999984 667.1485099999999 L 256.174 679.17251 L 252.81599999999997 665.92551 C 237.79499999999996 661.63157 227.57599999999996 659.74251 227.57599999999996 659.74251 C 227.57599999999996 659.74251 241.37599999999998 712.2315100000001 270.33 752.35951 L 304.06399999999996 758.28551 L 277.85699999999997 762.06451 C 281.4991015930954 766.4467186725632 285.41315784726527 770.5955715430554 289.576 774.4865100000001 C 331.691 813.57851 378.59999999999997 831.5145100000001 394.34899999999993 814.5465100000001 C 410.0979999999999 797.5785100000002 388.72399999999993 752.1345100000001 346.6089999999999 713.0465100000001 C 333.55299999999994 700.9275100000001 317.15199999999993 691.2025100000001 300.7339999999999 683.5465100000001 Z" stroke-linecap="round" />
</g>
		<g transform="matrix(1 0 0 1 -240.13 260.95)" id="bde08021-c30f-4979-a9d8-cb90b72b5ca2"  >
<path style="stroke: none; stroke-width: 1; stroke-dasharray: none; stroke-linecap: butt; stroke-dashoffset: 0; stroke-linejoin: miter; stroke-miterlimit: 4; fill: rgb(242,242,242); fill-rule: nonzero; opacity: 1;" vector-effect="non-scaling-stroke"  transform=" translate(-359.87, -710.95)" d="M 361.591 677.70647 L 369.349 652.16847 C 361.9408816838696 641.9365730445714 353.9615424820712 632.1306662790475 345.44900000000007 622.79747 L 338.52500000000003 632.66247 L 342.497 619.58647 C 331.856 608.1504699999999 324.08500000000004 601.2514699999999 324.08500000000004 601.2514699999999 C 324.08500000000004 601.2514699999999 308.77000000000004 653.3184699999999 312.81000000000006 702.6354699999999 L 338.62500000000006 725.1454699999999 L 314.23300000000006 714.8334699999999 C 315.08647782928165 720.4684024554507 316.2935272999079 726.0440759094173 317.8470000000001 731.5274699999999 C 333.69300000000004 786.7614699999999 364.57800000000003 826.3624699999999 386.83000000000004 819.9784699999999 C 409.08200000000005 813.5944699999999 414.27600000000007 763.6434699999999 398.43000000000006 708.4094699999999 C 393.5180000000001 691.2864699999999 384.5040000000001 674.4834699999999 374.40700000000004 659.4444699999999 Z" stroke-linecap="round" />
</g>
		<g transform="matrix(1 0 0 1 -38.36 -1.16)" id="b3ac2088-de9b-4f7f-bc99-0ed9705c1a9d"  >
<path style="stroke: none; stroke-width: 1; stroke-dasharray: none; stroke-linecap: butt; stroke-dashoffset: 0; stroke-linejoin: miter; stroke-miterlimit: 4; fill: rgb(230,230,230); fill-rule: nonzero; opacity: 1;" vector-effect="non-scaling-stroke"  transform=" translate(-561.64, -448.84)" d="M 747.327 253.4445 L 743.235 253.4445 L 743.235 141.3445 C 743.235 124.13645848974087 736.3991321265706 107.63321355911707 724.2312092837268 95.46529071627323 C 712.063286440883 83.2973678734294 695.5600415102591 76.4615 678.352 76.46150000000002 L 440.845 76.46150000000002 C 405.01110857672865 76.46150000000002 375.96200000000005 105.51060857672864 375.96200000000005 141.3445 L 375.96200000000005 756.3445 C 375.96200000000005 792.1783914232714 405.01110857672865 821.2275000000001 440.845 821.2275000000001 L 678.352 821.2275000000001 C 714.1855008983563 821.2269477212691 743.2340000042559 792.1780009026123 743.2339999999999 756.3445 L 743.2339999999999 333.2395 L 747.3259999999999 333.2395 Z" stroke-linecap="round" />
</g>
		<g transform="matrix(1 0 0 1 -38.36 -1.16)" id="b2715b96-3117-487c-acc0-20904544b5b7"  >
<path style="stroke: none; stroke-width: 1; stroke-dasharray: none; stroke-linecap: butt; stroke-dashoffset: 0; stroke-linejoin: miter; stroke-miterlimit: 4; fill: rgb(255,255,255); fill-rule: nonzero; opacity: 1;" vector-effect="non-scaling-stroke"  transform=" translate(-561.64, -448.84)" d="M 680.97 93.3355 L 649.97 93.3355 C 652.8653600685241 100.43407095964459 652.036904116438 108.50821159256878 647.7603370214142 114.87089919116056 C 643.4837699263906 121.23358678975231 636.3203432946583 125.04978976084462 628.654 125.0495 L 492.589 125.0495 C 484.92301083389395 125.04912372039408 477.76019831394683 121.23264869112275 473.48410515326464 114.87006923640403 C 469.20801199258244 108.50748978168531 468.37977367059096 100.43374305993663 471.275 93.3355 L 442.319 93.3355 C 415.55859473169875 93.3355 393.865 115.02909473169873 393.865 141.7895 L 393.865 755.8965 C 393.865 782.6569052683012 415.55859473169875 804.3504999999999 442.319 804.3504999999999 L 680.97 804.3504999999999 C 707.7304052683013 804.3504999999999 729.424 782.6569052683012 729.424 755.8965 L 729.424 755.8965 L 729.424 141.7885 C 729.4234477233098 115.02848525682506 707.7300147488739 93.33549999430102 680.97 93.3355 Z" stroke-linecap="round" />
</g>
		<g transform="matrix(1 0 0 1 -74.88 -112.04)" id="b06d66ec-6c84-45dd-8c27-1263a6253192"  >
<path style="stroke: none; stroke-width: 1; stroke-dasharray: none; stroke-linecap: butt; stroke-dashoffset: 0; stroke-linejoin: miter; stroke-miterlimit: 4; fill: rgb(204,204,204); fill-rule: nonzero; opacity: 1;" vector-effect="non-scaling-stroke"  transform=" translate(-525.12, -337.96)" d="M 531.234 337.96451 C 531.2324620714409 329.227730226816 535.8953542814866 321.15478830894966 543.464 316.79051000000004 C 533.1883266418145 310.8558063255412 520.1348315303162 313.1561532359349 512.5068399505279 322.2459230419553 C 504.8788483707397 331.3356928479757 504.8788483707397 344.59032715202443 512.5068399505279 353.6800969580448 C 520.1348315303162 362.7698667640652 533.1883266418145 365.07021367445896 543.464 359.13551000000007 C 535.8958159038114 354.77223451643124 531.2328963237746 346.7003890193784 531.234 337.96451 Z" stroke-linecap="round" />
</g>
		<g transform="matrix(1 0 0 1 -44.14 -112.04)" id="e73810fe-4cf4-40cc-8c7c-ca544ce30bd4"  >
<path style="stroke: none; stroke-width: 1; stroke-dasharray: none; stroke-linecap: butt; stroke-dashoffset: 0; stroke-linejoin: miter; stroke-miterlimit: 4; fill: rgb(204,204,204); fill-rule: nonzero; opacity: 1;" vector-effect="non-scaling-stroke"  transform=" translate(-555.86, -337.96)" d="M 561.971 337.96451 C 561.969243066048 329.2276715450742 566.632194017809 321.1546279267106 574.201 316.79051000000004 C 563.9253266418144 310.8558063255412 550.8718315303162 313.1561532359349 543.2438399505279 322.2459230419553 C 535.6158483707397 331.3356928479757 535.6158483707397 344.59032715202443 543.2438399505279 353.6800969580448 C 550.8718315303162 362.7698667640652 563.9253266418144 365.07021367445896 574.201 359.13551000000007 C 566.6328159038113 354.77223451643124 561.9698963237746 346.7003890193784 561.971 337.96451 Z" stroke-linecap="round" />
</g>
		<g transform="matrix(1 0 0 1 -7.99 -112.04)" id="a4813fcf-056e-4514-bb8b-e6506f49341f"  >
<circle style="stroke: none; stroke-width: 1; stroke-dasharray: none; stroke-linecap: butt; stroke-dashoffset: 0; stroke-linejoin: miter; stroke-miterlimit: 4; fill: rgb(108,99,255); fill-rule: nonzero; opacity: 1;" vector-effect="non-scaling-stroke"  cx="0" cy="0" r="24.45" />
</g>
		<g transform="matrix(1 0 0 1 -38.38 -112.04)" id="bbe451c3-febc-41ba-8083-4c8307a2e73e"  >
<path style="stroke: none; stroke-width: 1; stroke-dasharray: none; stroke-linecap: butt; stroke-dashoffset: 0; stroke-linejoin: miter; stroke-miterlimit: 4; fill: rgb(204,204,204); fill-rule: nonzero; opacity: 1;" vector-effect="non-scaling-stroke"  transform=" translate(-561.62, -337.96)" d="M 632.872 414.3305 L 490.37199999999996 414.3305 C 487.5473295785688 414.3271937105078 485.2583062894921 412.0381704214311 485.25499999999994 409.21349999999995 L 485.25499999999994 266.71349999999995 C 485.2583062894921 263.8888295785688 487.5473295785688 261.5998062894921 490.37199999999996 261.59649999999993 L 632.872 261.59649999999993 C 635.6966704214311 261.5998062894921 637.9856937105078 263.8888295785688 637.9889999999999 266.71349999999995 L 637.9889999999999 409.21349999999995 C 637.9856937105078 412.0381704214311 635.6966704214311 414.3271937105078 632.872 414.3305 Z M 490.37199999999996 263.6445 C 488.6771713010995 263.6461537614982 487.3036537614982 265.01967130109955 487.30199999999996 266.7145 L 487.30199999999996 409.2145 C 487.3036537614982 410.9093286989004 488.6771713010995 412.28284623850175 490.37199999999996 412.2845 L 632.872 412.2845 C 634.5668286989004 412.28284623850175 635.9403462385018 410.9093286989005 635.942 409.2145 L 635.942 266.7145 C 635.9403462385018 265.0196713010995 634.5668286989004 263.6461537614982 632.872 263.6445 Z" stroke-linecap="round" />
</g>
		<g transform="matrix(1 0 0 1 -44.59 74.59)" id="bb28937d-932f-4fdf-befe-f406e51091fe"  >
<rect style="stroke: none; stroke-width: 1; stroke-dasharray: none; stroke-linecap: butt; stroke-dashoffset: 0; stroke-linejoin: miter; stroke-miterlimit: 4; fill: rgb(204,204,204); fill-rule: nonzero; opacity: 1;" vector-effect="non-scaling-stroke"  x="-109.276" y="-1.0235" rx="0" ry="0" width="218.552" height="2.047" />
</g>
		<g transform="matrix(1 0 0 1 -146.96 53.88)" id="fcef55fc-4968-45b2-93bb-1a1080c85fc7"  >
<circle style="stroke: none; stroke-width: 1; stroke-dasharray: none; stroke-linecap: butt; stroke-dashoffset: 0; stroke-linejoin: miter; stroke-miterlimit: 4; fill: rgb(108,99,255); fill-rule: nonzero; opacity: 1;" vector-effect="non-scaling-stroke"  cx="0" cy="0" r="6.902" />
</g>
		<g transform="matrix(1 0 0 1 -44.59 143.6)" id="ff33d889-4c74-4b91-85ef-b4882cc8fe76"  >
<rect style="stroke: none; stroke-width: 1; stroke-dasharray: none; stroke-linecap: butt; stroke-dashoffset: 0; stroke-linejoin: miter; stroke-miterlimit: 4; fill: rgb(204,204,204); fill-rule: nonzero; opacity: 1;" vector-effect="non-scaling-stroke"  x="-109.276" y="-1.0235" rx="0" ry="0" width="218.552" height="2.047" />
</g>
		<g transform="matrix(1 0 0 1 -146.96 122.9)" id="e8fa0310-b872-4adf-aedd-0c6eda09f3b8"  >
<circle style="stroke: none; stroke-width: 1; stroke-dasharray: none; stroke-linecap: butt; stroke-dashoffset: 0; stroke-linejoin: miter; stroke-miterlimit: 4; fill: rgb(108,99,255); fill-rule: nonzero; opacity: 1;" vector-effect="non-scaling-stroke"  cx="0" cy="0" r="6.902" />
</g>
		<g transform="matrix(1 0 0 1 26.16 204.57)" id="a87032b8-5b37-4b7e-a4d9-4dbfbe394641"  >
<path style="stroke: none; stroke-width: 1; stroke-dasharray: none; stroke-linecap: butt; stroke-dashoffset: 0; stroke-linejoin: miter; stroke-miterlimit: 4; fill: rgb(108,99,255); fill-rule: nonzero; opacity: 1;" vector-effect="non-scaling-stroke"  transform=" translate(-626.16, -654.57)" d="M 660.69043 671.17188 L 591.62207 671.17188 C 589.1379149422986 671.1691629327319 587.1247870672681 669.1560350577014 587.12207 666.67188 L 587.12207 642.46388 C 587.1247815674798 639.9797226606906 589.1379126606907 637.9665915674798 591.62207 637.96388 L 660.69043 637.96388 C 663.1745896209294 637.9665860676449 665.1877239323551 639.9797203790706 665.19043 642.46388 L 665.19043 666.67188 C 665.1877184325202 669.1560373393093 663.1745873393093 671.1691684325202 660.69043 671.17188 Z" stroke-linecap="round" />
</g>
		<g transform="matrix(1 0 0 1 -124.45 53.88)" id="e12ee00d-aa4a-4413-a013-11d20b7f97f7"  >
<circle style="stroke: none; stroke-width: 1; stroke-dasharray: none; stroke-linecap: butt; stroke-dashoffset: 0; stroke-linejoin: miter; stroke-miterlimit: 4; fill: rgb(108,99,255); fill-rule: nonzero; opacity: 1;" vector-effect="non-scaling-stroke"  cx="0" cy="0" r="6.902" />
</g>
		<g transform="matrix(1 0 0 1 -101.93 53.88)" id="f58f497e-6949-45c8-be5f-eee2aa0f6586"  >
<circle style="stroke: none; stroke-width: 1; stroke-dasharray: none; stroke-linecap: butt; stroke-dashoffset: 0; stroke-linejoin: miter; stroke-miterlimit: 4; fill: rgb(108,99,255); fill-rule: nonzero; opacity: 1;" vector-effect="non-scaling-stroke"  cx="0" cy="0" r="6.902" />
</g>
		<g transform="matrix(1 0 0 1 -124.45 122.9)" id="b4d4939a-c6e6-4f4d-ba6c-e8b05485017d"  >
<circle style="stroke: none; stroke-width: 1; stroke-dasharray: none; stroke-linecap: butt; stroke-dashoffset: 0; stroke-linejoin: miter; stroke-miterlimit: 4; fill: rgb(108,99,255); fill-rule: nonzero; opacity: 1;" vector-effect="non-scaling-stroke"  cx="0" cy="0" r="6.902" />
</g>
		<g transform="matrix(1 0 0 1 -101.93 122.9)" id="aff120b1-519b-4e96-ac87-836aa55663de"  >
<circle style="stroke: none; stroke-width: 1; stroke-dasharray: none; stroke-linecap: butt; stroke-dashoffset: 0; stroke-linejoin: miter; stroke-miterlimit: 4; fill: rgb(108,99,255); fill-rule: nonzero; opacity: 1;" vector-effect="non-scaling-stroke"  cx="0" cy="0" r="6.902" />
</g>
		<g transform="matrix(1 0 0 1 10.65 372.32)" id="f1094013-1297-477a-ac57-08eac07c4bd5"  >
<path style="stroke: none; stroke-width: 1; stroke-dasharray: none; stroke-linecap: butt; stroke-dashoffset: 0; stroke-linejoin: miter; stroke-miterlimit: 4; fill: rgb(63,61,86); fill-rule: nonzero; opacity: 1;" vector-effect="non-scaling-stroke"  transform=" translate(-610.65, -822.32)" d="M 969.642 823.53851 L 251.656 823.53851 C 250.119 823.53851 248.874 822.9925099999999 248.874 822.32051 C 248.874 821.6485100000001 250.119 821.10151 251.656 821.10151 L 969.642 821.10151 C 971.178 821.10151 972.4240000000001 821.64751 972.4240000000001 822.32051 C 972.4240000000001 822.99351 971.178 823.53851 969.642 823.53851 Z" stroke-linecap="round" />
</g>
		<g transform="matrix(1 0 0 1 217.93 110.57)" id="a87032b8-5b37-4b7e-a4d9-4dbfbe394641"  >
<path style="stroke: none; stroke-width: 1; stroke-dasharray: none; stroke-linecap: butt; stroke-dashoffset: 0; stroke-linejoin: miter; stroke-miterlimit: 4; fill: rgb(255,184,184); fill-rule: nonzero; opacity: 1;" vector-effect="non-scaling-stroke"  transform=" translate(-817.93, -560.57)" d="M 792.25256 565.92292 C 792.7430908277172 566.1472411945011 793.2148515472643 566.4105209620762 793.66331 566.71023 L 838.51561 547.56704 L 840.11654 535.75178 L 858.03811 535.6422200000001 L 856.97938 562.7404200000001 L 797.77951 578.3962600000001 C 797.6549702316667 578.8077390470456 797.505531274962 579.2112666417048 797.3320199999999 579.6046100000001 C 794.9427964107547 584.7027187689512 788.884437926883 586.9136802926553 783.7731191282016 584.5528493970367 C 778.6618003295201 582.1920185014181 776.4171763488818 576.146051121094 778.7495415157246 571.0216804174895 C 781.0819066825674 565.8973097138851 787.1152959200562 563.6190927164605 792.2525599999999 565.9229200000001 Z" stroke-linecap="round" />
</g>
		<g transform="matrix(1 0 0 1 255.51 337.84)" id="a87032b8-5b37-4b7e-a4d9-4dbfbe394641"  >
<polygon style="stroke: none; stroke-width: 1; stroke-dasharray: none; stroke-linecap: butt; stroke-dashoffset: 0; stroke-linejoin: miter; stroke-miterlimit: 4; fill: rgb(255,184,184); fill-rule: nonzero; opacity: 1;" vector-effect="non-scaling-stroke"  points="9.05,23.64 -3.21,23.64 -9.05,-23.64 9.05,-23.64 9.05,23.64 " />
</g>
		<g transform="matrix(1 0 0 1 247.92 365.42)" id="a87032b8-5b37-4b7e-a4d9-4dbfbe394641"  >
<path style="stroke: none; stroke-width: 1; stroke-dasharray: none; stroke-linecap: butt; stroke-dashoffset: 0; stroke-linejoin: miter; stroke-miterlimit: 4; fill: rgb(47,46,65); fill-rule: nonzero; opacity: 1;" vector-effect="non-scaling-stroke"  transform=" translate(-620.34, -738.96)" d="M 615.96281 731.51778 L 639.60668 731.51778 L 639.60668 746.4046500000001 L 601.076 746.4046500000001 L 601.076 746.4046500000001 C 601.0759944771166 738.1828798700691 607.7410398701136 731.5178076141832 615.96281 731.51778 Z" stroke-linecap="round" />
</g>
		<g transform="matrix(1 0 0 1 300.92 335.09)" id="a87032b8-5b37-4b7e-a4d9-4dbfbe394641"  >
<polygon style="stroke: none; stroke-width: 1; stroke-dasharray: none; stroke-linecap: butt; stroke-dashoffset: 0; stroke-linejoin: miter; stroke-miterlimit: 4; fill: rgb(255,184,184); fill-rule: nonzero; opacity: 1;" vector-effect="non-scaling-stroke"  points="11.32,22.93 -0.88,24.13 -11.32,-22.36 6.69,-24.13 11.32,22.93 " />
</g>
		<g transform="matrix(1 -0.1 0.1 1 296.06 363.57)" id="a87032b8-5b37-4b7e-a4d9-4dbfbe394641"  >
<path style="stroke: none; stroke-width: 1; stroke-dasharray: none; stroke-linecap: butt; stroke-dashoffset: 0; stroke-linejoin: miter; stroke-miterlimit: 4; fill: rgb(47,46,65); fill-rule: nonzero; opacity: 1;" vector-effect="non-scaling-stroke"  transform=" translate(-896.06, -813.57)" d="M 891.68576 806.12757 L 915.32963 806.12757 L 915.32963 821.01444 L 876.7989 821.01444 L 876.7989 821.01444 C 876.798897347834 817.0661975134574 878.3673287095681 813.2796638526441 881.1591568078898 810.4878338789586 C 883.9509849062114 807.696003905273 887.7375175134564 806.1275699999991 891.68576 806.12757 Z" stroke-linecap="round" />
</g>
		<g transform="matrix(1 0 0 1 267.97 11.04)" id="a87032b8-5b37-4b7e-a4d9-4dbfbe394641"  >
<circle style="stroke: none; stroke-width: 1; stroke-dasharray: none; stroke-linecap: butt; stroke-dashoffset: 0; stroke-linejoin: miter; stroke-miterlimit: 4; fill: rgb(255,184,184); fill-rule: nonzero; opacity: 1;" vector-effect="non-scaling-stroke"  cx="0" cy="0" r="24.56103" />
</g>
		<g transform="matrix(1 0 0 1 266.48 265.5)" id="a87032b8-5b37-4b7e-a4d9-4dbfbe394641"  >
<path style="stroke: none; stroke-width: 1; stroke-dasharray: none; stroke-linecap: butt; stroke-dashoffset: 0; stroke-linejoin: miter; stroke-miterlimit: 4; fill: rgb(47,46,65); fill-rule: nonzero; opacity: 1;" vector-effect="non-scaling-stroke"  transform=" translate(-866.48, -715.5)" d="M 849.55636 801.91945 C 847.3812540703624 801.9250811400866 845.517716002424 800.3644956911475 845.1413600000001 798.22219 C 838.79565 762.9966 818.0534700000001 647.81691 817.5573600000001 644.6264799999999 C 817.5463980752272 644.5531051232654 817.54117557265 644.4789870457175 817.5417400000001 644.4047999999999 L 817.5417400000001 635.8169099999999 C 817.5409226017606 635.5040996949559 817.6386416131106 635.1989766392502 817.8210300000001 634.9448399999999 L 820.56127 631.1069499999999 C 820.8251197481981 630.7327926167229 821.247426200514 630.5019837035163 821.70482 630.4819499999999 C 837.32689 629.7495299999998 888.489 627.6030499999998 890.96068 630.6909499999998 L 890.96068 630.6909499999998 C 893.4431000000001 633.7944599999998 892.56615 643.1977799999999 892.3649800000001 645.0512999999999 L 892.3747500000001 645.2446599999998 L 915.3601000000001 792.2397799999999 C 915.7344097434587 794.6792676193901 914.0793869525294 796.966882146478 911.6452500000001 797.3745399999999 L 897.2888100000001 799.7397799999999 C 895.0790920411844 800.0947381012658 892.9422001719216 798.7796289385107 892.2634200000001 796.6469999999999 C 887.8229900000001 782.4585299999999 872.9343200000001 734.7289999999999 867.7741600000002 716.26028 C 867.7074865152517 716.0182855583241 867.4714955193973 715.8634288080955 867.222958040053 715.8985825380774 C 866.9744205607086 715.9337362680595 866.7906342180943 716.1479673196935 866.7936900000002 716.39896 C 867.0515000000001 734.00442 867.6745500000002 778.92239 867.8893900000002 794.43606 L 867.9128300000002 796.10696 C 867.9325960564652 798.4520533587521 866.1548292794191 800.4224057088792 863.8200600000002 800.6431 L 849.9763100000002 801.90091 C 849.83565 801.91359 849.695 801.91945 849.55636 801.91945 Z" stroke-linecap="round" />
</g>
		<g transform="matrix(1 0 0 1 260.72 118.75)" id="ae7af94f-88d7-4204-9f07-e3651de85c05"  >
<path style="stroke: none; stroke-width: 1; stroke-dasharray: none; stroke-linecap: butt; stroke-dashoffset: 0; stroke-linejoin: miter; stroke-miterlimit: 4; fill: rgb(255,255,255); fill-rule: nonzero; opacity: 1;" vector-effect="non-scaling-stroke"  transform=" translate(-860.72, -568.75)" d="M 852.38089 495.2538 C 848.09455 497.8018 845.52973 502.48423 844.05813 507.2489 C 841.333158314944 516.0701122745011 839.692930452276 525.1904318649106 839.17369 534.40833 L 837.61816 562.0085399999999 L 818.36308 635.1784399999999 C 835.05179 649.2991399999999 844.6785 646.0899699999999 867.14357 634.5396499999999 C 889.6086399999999 622.98933 892.17579 638.39082 892.17579 638.39082 L 896.66815 576.13243 L 903.08652 508.10011 C 901.6458563035246 506.36523920808384 900.0151907237666 504.797392809056 898.2250899999999 503.42596 C 886.2049549110102 494.07915256138085 870.5611387077323 490.7635427910635 855.7828 494.43057999999996 Z" stroke-linecap="round" />
</g>
		<g transform="matrix(1 0 0 1 271.99 123.48)" id="a87032b8-5b37-4b7e-a4d9-4dbfbe394641"  >
<path style="stroke: none; stroke-width: 1; stroke-dasharray: none; stroke-linecap: butt; stroke-dashoffset: 0; stroke-linejoin: miter; stroke-miterlimit: 4; fill: rgb(255,184,184); fill-rule: nonzero; opacity: 1;" vector-effect="non-scaling-stroke"  transform=" translate(-871.99, -573.48)" d="M 846.12661 580.70047 C 846.644538303053 580.895289828391 847.1462969433402 581.13064937505 847.6272200000001 581.40436 L 891.9755400000001 559.20716 L 892.7115400000001 547.18165 L 911.0053400000002 545.92038 L 911.9857500000002 573.33298 L 852.7199 592.93235 C 851.7290519744821 597.1821688586409 848.21199070826 600.3755401140364 843.8865339916084 600.9527440063536 C 839.5610772749569 601.5299478986708 835.329724238097 599.3705518250883 833.2591700487983 595.5292570576812 C 831.1886158594997 591.687962290274 831.7108781004893 586.9662483983928 834.5708712612081 583.6703146518541 C 837.4308644219271 580.3743809053153 842.0318558313375 579.1919182311988 846.12661 580.70047 Z" stroke-linecap="round" />
</g>
		<g transform="matrix(1 0 0 1 297.45 82.78)" id="a6768b0e-63d0-4b31-8462-9b2e0b00f0fd"  >
<path style="stroke: none; stroke-width: 1; stroke-dasharray: none; stroke-linecap: butt; stroke-dashoffset: 0; stroke-linejoin: miter; stroke-miterlimit: 4; fill: rgb(255,255,255); fill-rule: nonzero; opacity: 1;" vector-effect="non-scaling-stroke"  transform=" translate(-897.45, -532.78)" d="M 902.76552 508.41151 C 913.6770300000001 512.26268 915.59906 553.9852000000001 915.59906 553.9852000000001 C 902.7623600000001 546.9248400000001 887.35767 558.4783800000001 887.35767 558.4783800000001 C 887.35767 558.4783800000001 884.14851 547.5668400000002 880.29733 533.4461500000001 C 877.9337497831526 525.3731976244223 879.8716202127158 516.6521654776515 885.43169 510.3399000000001 C 885.43169 510.3399000000001 891.854 504.558 902.76552 508.41151 Z" stroke-linecap="round" />
</g>
		<g transform="matrix(1 0 0 1 268.54 -1.86)" id="bfd7963f-0cf8-4885-9d3a-2c00bccda2e3"  >
<path style="stroke: none; stroke-width: 1; stroke-dasharray: none; stroke-linecap: butt; stroke-dashoffset: 0; stroke-linejoin: miter; stroke-miterlimit: 4; fill: rgb(47,46,65); fill-rule: nonzero; opacity: 1;" vector-effect="non-scaling-stroke"  transform=" translate(-868.54, -448.14)" d="M 889.99122 467.53052 C 886.93122 465.08215 882.75605 469.53225000000003 882.75605 469.53225000000003 L 880.30765 447.49876000000006 C 880.30765 447.49876000000006 865.0066999999999 449.33166000000006 855.21415 446.8871500000001 C 845.4216000000001 444.4426400000001 843.8916 455.7622800000001 843.8916 455.7622800000001 C 843.3867615688855 451.1897745155677 843.2844285205528 446.5817690811746 843.58578 441.99136000000016 C 844.19736 436.4829800000001 852.15416 430.9746100000001 866.23088 427.3020400000001 C 880.3075999999999 423.6294700000001 887.6518 439.543 887.6518 439.543 C 897.44542 444.43877 893.05121 469.97891 889.99122 467.53052 Z" stroke-linecap="round" />
</g>
</g>
</g>
</svg>